<svg xmlns="http://www.w3.org/2000/svg" viewBox="0 0 500 500"><g id="freepik--background-complete--inject-34"><rect y="382.4" width="500" height="0.25" style="fill:#ebebeb"></rect><rect x="416.78" y="398.49" width="33.12" height="0.25" style="fill:#ebebeb"></rect><rect x="322.53" y="401.21" width="8.69" height="0.25" style="fill:#ebebeb"></rect><rect x="396.59" y="389.21" width="19.19" height="0.25" style="fill:#ebebeb"></rect><rect x="52.46" y="390.89" width="43.19" height="0.25" style="fill:#ebebeb"></rect><rect x="104.56" y="390.89" width="6.33" height="0.25" style="fill:#ebebeb"></rect><rect x="131.47" y="395.11" width="93.68" height="0.25" style="fill:#ebebeb"></rect><path d="M237,337.8H43.91a5.71,5.71,0,0,1-5.7-5.71V60.66A5.71,5.71,0,0,1,43.91,55H237a5.71,5.71,0,0,1,5.71,5.71V332.09A5.71,5.71,0,0,1,237,337.8ZM43.91,55.2a5.46,5.46,0,0,0-5.45,5.46V332.09a5.46,5.46,0,0,0,5.45,5.46H237a5.47,5.47,0,0,0,5.46-5.46V60.66A5.47,5.47,0,0,0,237,55.2Z" style="fill:#ebebeb"></path><path d="M453.31,337.8H260.21a5.72,5.72,0,0,1-5.71-5.71V60.66A5.72,5.72,0,0,1,260.21,55h193.1A5.71,5.71,0,0,1,459,60.66V332.09A5.71,5.71,0,0,1,453.31,337.8ZM260.21,55.2a5.47,5.47,0,0,0-5.46,5.46V332.09a5.47,5.47,0,0,0,5.46,5.46h193.1a5.47,5.47,0,0,0,5.46-5.46V60.66a5.47,5.47,0,0,0-5.46-5.46Z" style="fill:#ebebeb"></path><circle cx="160.41" cy="123.79" r="27.79" style="fill:#fafafa"></circle><path d="M146,123.48a4.83,4.83,0,0,0-4.83-4.83,4.92,4.92,0,0,0-1.39.2,10.21,10.21,0,0,0-10.12-11.71,10.6,10.6,0,0,0-1.88.17,8.94,8.94,0,0,0-16.58,4.52H111a8.24,8.24,0,0,0,0,16.48H141.3A4.82,4.82,0,0,0,146,123.48Z" style="fill:#f5f5f5"></path><path d="M353.89,145.85a4.83,4.83,0,0,0-4.83-4.83,4.52,4.52,0,0,0-1.38.21,10.46,10.46,0,0,0,.1-1.49,10.22,10.22,0,0,0-10.22-10.23,10.62,10.62,0,0,0-1.89.18,8.94,8.94,0,0,0-16.58,4.52h-.15a8.24,8.24,0,0,0,0,16.48H349.2A4.82,4.82,0,0,0,353.89,145.85Z" style="fill:#f5f5f5"></path><path d="M124.4,217.7a4.83,4.83,0,0,0-4.83-4.83,4.54,4.54,0,0,0-1.39.21,10.45,10.45,0,0,0,.11-1.49,10.23,10.23,0,0,0-10.23-10.23,10.81,10.81,0,0,0-1.89.18,8.93,8.93,0,0,0-16.57,4.52h-.15a8.24,8.24,0,0,0,0,16.48H119.7A4.84,4.84,0,0,0,124.4,217.7Z" style="fill:#f5f5f5"></path><path d="M237.66,114.6a4.83,4.83,0,0,1,4.83-4.83,4.92,4.92,0,0,1,1.39.21,10.42,10.42,0,0,1-.11-1.48A10.23,10.23,0,0,1,254,98.27a10.6,10.6,0,0,1,1.88.17A8.94,8.94,0,0,1,272.46,103h.15a8.24,8.24,0,1,1,0,16.48H242.36A4.83,4.83,0,0,1,237.66,114.6Z" style="fill:#f5f5f5"></path><path d="M206.6,138a3,3,0,0,0-3.86-2.88,7,7,0,0,0,.06-.92,6.36,6.36,0,0,0-6.36-6.36,6.45,6.45,0,0,0-1.17.11A5.56,5.56,0,0,0,185,130.71h-.09a5.13,5.13,0,0,0,0,10.25h18.81A3,3,0,0,0,206.6,138Z" style="fill:#f5f5f5"></path><path d="M218.82,190.44a3,3,0,0,1,3-3,2.71,2.71,0,0,1,.86.13,7,7,0,0,1-.07-.93,6.36,6.36,0,0,1,6.36-6.36,6.45,6.45,0,0,1,1.17.11,5.56,5.56,0,0,1,10.31,2.81h.09a5.13,5.13,0,1,1,0,10.25H221.73A3,3,0,0,1,218.82,190.44Z" style="fill:#f5f5f5"></path><path d="M390.63,181.54a3,3,0,0,1,3.86-2.87,7,7,0,0,1-.06-.92,6.35,6.35,0,0,1,6.36-6.36,6.45,6.45,0,0,1,1.17.11,5.55,5.55,0,0,1,10.3,2.81h.1a5.13,5.13,0,0,1,0,10.25H393.55A3,3,0,0,1,390.63,181.54Z" style="fill:#f5f5f5"></path></g><g id="freepik--Shadow--inject-34"><ellipse id="freepik--path--inject-34" cx="250" cy="416.24" rx="193.89" ry="11.32" style="fill:#f5f5f5"></ellipse></g><g id="freepik--Building--inject-34"><rect x="70.41" y="374.64" width="359.17" height="16.33" style="fill:#CC8C18"></rect><path d="M250,178.6c2.22,0,2.94,4.15,2.94,4.15h-5.88S247.94,178.6,250,178.6Z" style="fill:#CC8C18"></path><polygon points="250 174.8 250.35 179.57 249.65 179.57 250 174.8" style="fill:#CC8C18"></polygon><rect x="250.35" y="182.75" width="0.95" height="4.71" style="fill:#CC8C18"></rect><rect x="248.7" y="182.75" width="0.95" height="4.71" style="fill:#CC8C18"></rect><rect x="247.06" y="182.75" width="0.95" height="4.71" style="fill:#CC8C18"></rect><rect x="251.99" y="182.75" width="0.95" height="4.71" style="fill:#CC8C18"></rect><path d="M277.79,225S276.1,197.34,250,186.7v.11l0-.11C223.9,197.34,222.21,225,222.21,225L250,226.19l0-.08v.08Z" style="fill:#CC8C18"></path><path d="M274.64,225s-1.5-27.69-24.63-38.33v.11l0-.11C226.86,197.34,225.36,225,225.36,225L250,226.19l0-.08v.08Z" style="opacity:0.2"></path><path d="M265,225s-.91-27.69-15-38.33v0C235.88,197.34,235,225,235,225l15,1.16v0Z" style="fill:#CC8C18"></path><path d="M255.84,225s-.36-27.69-5.84-38.33v0c-5.48,10.64-5.84,38.33-5.84,38.33l5.84,1.16v0Z" style="opacity:0.2"></path><rect x="222.61" y="226.19" width="54.79" height="13.71" style="fill:#CC8C18"></rect><rect x="222.61" y="226.19" width="54.79" height="13.71" style="fill:#fff;opacity:0.30000000000000004"></rect><rect x="224.85" y="228.29" width="3.36" height="5.69" style="opacity:0.2"></rect><rect x="232.67" y="228.29" width="3.36" height="5.69" style="opacity:0.2"></rect><rect x="240.49" y="228.29" width="3.36" height="5.69" style="opacity:0.2"></rect><rect x="248.32" y="228.29" width="3.36" height="5.69" style="opacity:0.2"></rect><rect x="256.14" y="228.29" width="3.36" height="5.69" style="opacity:0.2"></rect><rect x="263.97" y="228.29" width="3.36" height="5.69" style="opacity:0.2"></rect><rect x="271.79" y="228.29" width="3.36" height="5.69" style="opacity:0.2"></rect><rect x="221.3" y="239.35" width="57.39" height="48.09" style="fill:#CC8C18"></rect><rect x="221.3" y="239.35" width="57.39" height="48.09" style="fill:#fff;opacity:0.30000000000000004"></rect><rect x="223.05" y="245.04" width="3.6" height="19.06" style="opacity:0.2"></rect><rect x="231.43" y="245.04" width="3.6" height="19.06" style="opacity:0.2"></rect><rect x="239.81" y="245.04" width="3.6" height="19.06" style="opacity:0.2"></rect><rect x="248.2" y="245.04" width="3.6" height="19.06" style="opacity:0.2"></rect><rect x="256.58" y="245.04" width="3.6" height="19.06" style="opacity:0.2"></rect><rect x="264.97" y="245.04" width="3.6" height="19.06" style="opacity:0.2"></rect><rect x="273.35" y="245.04" width="3.6" height="19.06" style="opacity:0.2"></rect><polygon points="250 232.47 235.14 239.9 235.8 240.8 264.2 240.8 264.86 239.9 250 232.47" style="fill:#CC8C18"></polygon><polygon points="250 232.47 235.14 239.9 235.8 240.8 264.2 240.8 264.86 239.9 250 232.47" style="fill:#fff;opacity:0.4"></polygon><polygon points="250 233.39 236.97 239.9 263.03 239.9 250 233.39" style="fill:#fff;opacity:0.2"></polygon><polygon points="235.76 240.8 221.26 240.8 221.26 233.39 228.51 239.34 235.1 239.34 235.76 240.8" style="fill:#CC8C18"></polygon><polygon points="235.76 240.8 221.26 240.8 221.26 233.39 228.51 239.34 235.1 239.34 235.76 240.8" style="fill:#fff;opacity:0.4"></polygon><polygon points="264.24 240.8 278.74 240.8 278.74 233.39 271.49 239.34 264.9 239.34 264.24 240.8" style="fill:#CC8C18"></polygon><polygon points="264.24 240.8 278.74 240.8 278.74 233.39 271.49 239.34 264.9 239.34 264.24 240.8" style="fill:#fff;opacity:0.4"></polygon><polygon points="221.2 227.7 278.8 227.7 277.79 224.68 222.21 224.68 221.2 227.7" style="fill:#CC8C18"></polygon><polygon points="221.2 227.7 278.8 227.7 277.79 224.68 222.21 224.68 221.2 227.7" style="fill:#fff;opacity:0.4"></polygon><polygon points="246.31 188.21 253.69 188.21 253.56 186.7 246.44 186.7 246.31 188.21" style="fill:#CC8C18"></polygon><polygon points="246.31 188.21 253.69 188.21 253.56 186.7 246.44 186.7 246.31 188.21" style="fill:#fff;opacity:0.4"></polygon><polygon points="246.72 183.42 253.28 183.42 253.16 182.07 246.84 182.07 246.72 183.42" style="fill:#CC8C18"></polygon><polygon points="246.72 183.42 253.28 183.42 253.16 182.07 246.84 182.07 246.72 183.42" style="fill:#fff;opacity:0.4"></polygon><rect x="139.63" y="317.18" width="70.98" height="57.47" style="fill:#CC8C18"></rect><rect x="142.84" y="327.35" width="6.19" height="11.32" style="opacity:0.2"></rect><rect x="142.84" y="352.27" width="6.19" height="22.38" style="opacity:0.2"></rect><rect x="157.43" y="327.35" width="6.19" height="11.32" style="opacity:0.2"></rect><rect x="157.43" y="352.27" width="6.19" height="22.38" style="opacity:0.2"></rect><rect x="172.02" y="327.35" width="6.19" height="11.32" style="opacity:0.2"></rect><rect x="172.02" y="352.27" width="6.19" height="22.38" style="opacity:0.2"></rect><rect x="186.62" y="327.35" width="6.19" height="11.32" style="opacity:0.2"></rect><rect x="186.62" y="352.27" width="6.19" height="22.38" style="opacity:0.2"></rect><rect x="201.21" y="327.35" width="6.19" height="11.32" style="opacity:0.2"></rect><rect x="201.21" y="352.27" width="6.19" height="22.38" style="opacity:0.2"></rect><rect x="135.28" y="300.49" width="79.67" height="19.92" style="fill:#CC8C18"></rect><rect x="135.28" y="300.49" width="79.67" height="19.92" style="fill:#fff;opacity:0.2"></rect><polygon points="213.78 371.84 209.41 371.84 210.03 323.62 209.41 322.01 213.78 322.01 213.17 323.62 213.78 371.84" style="fill:#CC8C18"></polygon><polygon points="213.78 371.84 209.41 371.84 210.03 323.62 209.41 322.01 213.78 322.01 213.17 323.62 213.78 371.84" style="fill:#fff;opacity:0.2"></polygon><rect x="208.8" y="370.04" width="5.59" height="4.6" style="fill:#CC8C18"></rect><rect x="208.8" y="370.04" width="5.59" height="4.6" style="fill:#fff;opacity:0.4"></rect><polygon points="199.19 371.84 194.82 371.84 195.43 323.62 194.82 322.01 199.19 322.01 198.58 323.62 199.19 371.84" style="fill:#CC8C18"></polygon><polygon points="199.19 371.84 194.82 371.84 195.43 323.62 194.82 322.01 199.19 322.01 198.58 323.62 199.19 371.84" style="fill:#fff;opacity:0.2"></polygon><rect x="194.21" y="370.04" width="5.59" height="4.6" style="fill:#CC8C18"></rect><rect x="194.21" y="370.04" width="5.59" height="4.6" style="fill:#fff;opacity:0.4"></rect><polygon points="184.6 371.84 180.23 371.84 180.84 323.62 180.23 322.01 184.6 322.01 183.99 323.62 184.6 371.84" style="fill:#CC8C18"></polygon><polygon points="184.6 371.84 180.23 371.84 180.84 323.62 180.23 322.01 184.6 322.01 183.99 323.62 184.6 371.84" style="fill:#fff;opacity:0.2"></polygon><rect x="179.62" y="370.04" width="5.59" height="4.6" style="fill:#CC8C18"></rect><rect x="179.62" y="370.04" width="5.59" height="4.6" style="fill:#fff;opacity:0.4"></rect><polygon points="170.01 371.84 165.63 371.84 166.25 323.62 165.63 322.01 170.01 322.01 169.39 323.62 170.01 371.84" style="fill:#CC8C18"></polygon><polygon points="170.01 371.84 165.63 371.84 166.25 323.62 165.63 322.01 170.01 322.01 169.39 323.62 170.01 371.84" style="fill:#fff;opacity:0.2"></polygon><rect x="165.03" y="370.04" width="5.59" height="4.6" style="fill:#CC8C18"></rect><rect x="165.03" y="370.04" width="5.59" height="4.6" style="fill:#fff;opacity:0.4"></rect><polygon points="155.41 371.84 151.04 371.84 151.66 323.62 151.04 322.01 155.41 322.01 154.8 323.62 155.41 371.84" style="fill:#CC8C18"></polygon><polygon points="155.41 371.84 151.04 371.84 151.66 323.62 151.04 322.01 155.41 322.01 154.8 323.62 155.41 371.84" style="fill:#fff;opacity:0.2"></polygon><rect x="150.44" y="370.04" width="5.59" height="4.6" style="fill:#CC8C18"></rect><rect x="150.44" y="370.04" width="5.59" height="4.6" style="fill:#fff;opacity:0.4"></rect><polygon points="140.82 371.84 136.45 371.84 137.06 323.62 136.45 322.01 140.82 322.01 140.21 323.62 140.82 371.84" style="fill:#CC8C18"></polygon><polygon points="140.82 371.84 136.45 371.84 137.06 323.62 136.45 322.01 140.82 322.01 140.21 323.62 140.82 371.84" style="fill:#fff;opacity:0.2"></polygon><rect x="135.84" y="370.04" width="5.59" height="4.6" style="fill:#CC8C18"></rect><rect x="135.84" y="370.04" width="5.59" height="4.6" style="fill:#fff;opacity:0.4"></rect><rect x="134.69" y="319.35" width="80.86" height="2.67" style="fill:#CC8C18"></rect><rect x="134.69" y="319.35" width="80.86" height="2.67" style="fill:#fff;opacity:0.4"></rect><rect x="134.69" y="310.75" width="80.86" height="2.67" style="fill:#CC8C18"></rect><rect x="134.69" y="310.75" width="80.86" height="2.67" style="fill:#fff;opacity:0.4"></rect><rect x="134.03" y="294.52" width="81.52" height="7.23" style="fill:#CC8C18"></rect><rect x="142.84" y="305.25" width="6.19" height="4.6" style="opacity:0.2"></rect><rect x="157.43" y="305.25" width="6.19" height="4.6" style="opacity:0.2"></rect><rect x="172.02" y="305.25" width="6.19" height="4.6" style="opacity:0.2"></rect><rect x="186.62" y="305.25" width="6.19" height="4.6" style="opacity:0.2"></rect><rect x="201.21" y="305.25" width="6.19" height="4.6" style="opacity:0.2"></rect><rect x="290.05" y="317.18" width="70.98" height="57.47" style="fill:#CC8C18"></rect><rect x="293.26" y="327.35" width="6.19" height="11.32" style="opacity:0.2"></rect><rect x="293.26" y="352.27" width="6.19" height="22.38" style="opacity:0.2"></rect><rect x="307.85" y="327.35" width="6.19" height="11.32" style="opacity:0.2"></rect><rect x="307.85" y="352.27" width="6.19" height="22.38" style="opacity:0.2"></rect><rect x="322.45" y="327.35" width="6.19" height="11.32" style="opacity:0.2"></rect><rect x="322.45" y="352.27" width="6.19" height="22.38" style="opacity:0.2"></rect><rect x="337.04" y="327.35" width="6.19" height="11.32" style="opacity:0.2"></rect><rect x="337.04" y="352.27" width="6.19" height="22.38" style="opacity:0.2"></rect><rect x="351.63" y="327.35" width="6.19" height="11.32" style="opacity:0.2"></rect><rect x="351.63" y="352.27" width="6.19" height="22.38" style="opacity:0.2"></rect><rect x="285.71" y="300.49" width="79.67" height="19.92" style="fill:#CC8C18"></rect><rect x="285.71" y="300.49" width="79.67" height="19.92" style="fill:#fff;opacity:0.2"></rect><polygon points="364.21 371.84 359.83 371.84 360.45 323.62 359.83 322.01 364.21 322.01 363.59 323.62 364.21 371.84" style="fill:#CC8C18"></polygon><polygon points="364.21 371.84 359.83 371.84 360.45 323.62 359.83 322.01 364.21 322.01 363.59 323.62 364.21 371.84" style="fill:#fff;opacity:0.2"></polygon><rect x="359.23" y="370.04" width="5.59" height="4.6" style="fill:#CC8C18"></rect><rect x="359.23" y="370.04" width="5.59" height="4.6" style="fill:#fff;opacity:0.4"></rect><polygon points="349.61 371.84 345.24 371.84 345.86 323.62 345.24 322.01 349.61 322.01 349 323.62 349.61 371.84" style="fill:#CC8C18"></polygon><polygon points="349.61 371.84 345.24 371.84 345.86 323.62 345.24 322.01 349.61 322.01 349 323.62 349.61 371.84" style="fill:#fff;opacity:0.2"></polygon><rect x="344.63" y="370.04" width="5.59" height="4.6" style="fill:#CC8C18"></rect><rect x="344.63" y="370.04" width="5.59" height="4.6" style="fill:#fff;opacity:0.4"></rect><polygon points="335.02 371.84 330.65 371.84 331.26 323.62 330.65 322.01 335.02 322.01 334.41 323.62 335.02 371.84" style="fill:#CC8C18"></polygon><polygon points="335.02 371.84 330.65 371.84 331.26 323.62 330.65 322.01 335.02 322.01 334.41 323.62 335.02 371.84" style="fill:#fff;opacity:0.2"></polygon><rect x="330.04" y="370.04" width="5.59" height="4.6" style="fill:#CC8C18"></rect><rect x="330.04" y="370.04" width="5.59" height="4.6" style="fill:#fff;opacity:0.4"></rect><polygon points="320.43 371.84 316.06 371.84 316.67 323.62 316.06 322.01 320.43 322.01 319.81 323.62 320.43 371.84" style="fill:#CC8C18"></polygon><polygon points="320.43 371.84 316.06 371.84 316.67 323.62 316.06 322.01 320.43 322.01 319.81 323.62 320.43 371.84" style="fill:#fff;opacity:0.2"></polygon><rect x="315.45" y="370.04" width="5.59" height="4.6" style="fill:#CC8C18"></rect><rect x="315.45" y="370.04" width="5.59" height="4.6" style="fill:#fff;opacity:0.4"></rect><polygon points="305.84 371.84 301.46 371.84 302.08 323.62 301.46 322.01 305.84 322.01 305.22 323.62 305.84 371.84" style="fill:#CC8C18"></polygon><polygon points="305.84 371.84 301.46 371.84 302.08 323.62 301.46 322.01 305.84 322.01 305.22 323.62 305.84 371.84" style="fill:#fff;opacity:0.2"></polygon><rect x="300.86" y="370.04" width="5.59" height="4.6" style="fill:#CC8C18"></rect><rect x="300.86" y="370.04" width="5.59" height="4.6" style="fill:#fff;opacity:0.4"></rect><polygon points="291.25 371.84 286.87 371.84 287.49 323.62 286.87 322.01 291.25 322.01 290.63 323.62 291.25 371.84" style="fill:#CC8C18"></polygon><polygon points="291.25 371.84 286.87 371.84 287.49 323.62 286.87 322.01 291.25 322.01 290.63 323.62 291.25 371.84" style="fill:#fff;opacity:0.2"></polygon><rect x="286.27" y="370.04" width="5.59" height="4.6" style="fill:#CC8C18"></rect><rect x="286.27" y="370.04" width="5.59" height="4.6" style="fill:#fff;opacity:0.4"></rect><rect x="285.11" y="319.35" width="80.86" height="2.67" style="fill:#CC8C18"></rect><rect x="285.11" y="319.35" width="80.86" height="2.67" style="fill:#fff;opacity:0.4"></rect><rect x="285.11" y="310.75" width="80.86" height="2.67" style="fill:#CC8C18"></rect><rect x="285.11" y="310.75" width="80.86" height="2.67" style="fill:#fff;opacity:0.4"></rect><rect x="284.45" y="294.52" width="81.52" height="7.23" style="fill:#CC8C18"></rect><rect x="293.26" y="305.25" width="6.19" height="4.6" style="opacity:0.2"></rect><rect x="307.85" y="305.25" width="6.19" height="4.6" style="opacity:0.2"></rect><rect x="322.45" y="305.25" width="6.19" height="4.6" style="opacity:0.2"></rect><rect x="337.04" y="305.25" width="6.19" height="4.6" style="opacity:0.2"></rect><rect x="351.63" y="305.25" width="6.19" height="4.6" style="opacity:0.2"></rect><polygon points="289.06 296.26 320.43 320.41 320.43 374.64 267.33 374.64 275.15 304.5 289.06 296.26" style="opacity:0.2"></polygon><polygon points="146.85 296.71 160.19 320.41 160.19 374.64 107.09 374.64 114.91 304.5 146.85 296.71" style="opacity:0.2"></polygon><polygon points="210.17 294.52 203.09 309.53 203.09 374.64 221.2 374.64 210.17 294.52" style="opacity:0.2"></polygon><polygon points="353.15 294.45 347.43 307.25 347.43 374.64 358.62 374.64 358.62 298.13 353.15 294.45" style="opacity:0.2"></polygon><path d="M387.82,273.9V270l.81-1.09v-4.05s-3.58-3.29-1.63-6.66c0,0,.82,2.77,2.6,2.77,0,0,.09-1.94,1-1.94s.92,1.78.92,1.78a2.73,2.73,0,0,0,1.95-2.61s2.91,3.58,0,6.5l-.33,4.53,1.07.77v3.84Z" style="fill:#CC8C18"></path><rect x="386.98" y="273.81" width="7.24" height="7.37" style="fill:#CC8C18"></rect><rect x="386.98" y="273.81" width="7.24" height="7.37" style="fill:#fff;opacity:0.2"></rect><rect x="355.72" y="309.8" width="69.75" height="64.84" style="fill:#CC8C18"></rect><rect x="366.36" y="326.46" width="5.81" height="10.69" style="opacity:0.2"></rect><rect x="366.36" y="344.88" width="5.81" height="26.36" style="opacity:0.2"></rect><rect x="380.58" y="326.46" width="5.81" height="10.69" style="opacity:0.2"></rect><rect x="380.58" y="344.88" width="5.81" height="26.36" style="opacity:0.2"></rect><rect x="394.8" y="326.46" width="5.81" height="10.69" style="opacity:0.2"></rect><rect x="394.8" y="344.88" width="5.81" height="26.36" style="opacity:0.2"></rect><rect x="409.02" y="326.46" width="5.81" height="10.69" style="opacity:0.2"></rect><rect x="409.02" y="344.88" width="5.81" height="26.36" style="opacity:0.2"></rect><rect x="350.76" y="297.78" width="79.67" height="15.95" style="fill:#CC8C18"></rect><rect x="350.76" y="297.78" width="79.67" height="15.95" style="fill:#fff;opacity:0.2"></rect><polygon points="421.97 371.24 417.6 371.24 418.21 317.62 417.6 315.67 421.97 315.67 421.36 317.62 421.97 371.24" style="fill:#CC8C18"></polygon><polygon points="421.97 371.24 417.6 371.24 418.21 317.62 417.6 315.67 421.97 315.67 421.36 317.62 421.97 371.24" style="fill:#fff;opacity:0.2"></polygon><rect x="416.99" y="369.05" width="5.59" height="5.59" style="fill:#CC8C18"></rect><rect x="416.99" y="369.05" width="5.59" height="5.59" style="fill:#fff;opacity:0.4"></rect><polygon points="407.38 371.24 403 371.24 403.62 317.62 403 315.67 407.38 315.67 406.76 317.62 407.38 371.24" style="fill:#CC8C18"></polygon><polygon points="407.38 371.24 403 371.24 403.62 317.62 403 315.67 407.38 315.67 406.76 317.62 407.38 371.24" style="fill:#fff;opacity:0.2"></polygon><rect x="402.4" y="369.05" width="5.59" height="5.59" style="fill:#CC8C18"></rect><rect x="402.4" y="369.05" width="5.59" height="5.59" style="fill:#fff;opacity:0.4"></rect><polygon points="392.79 371.24 388.41 371.24 389.03 317.62 388.41 315.67 392.79 315.67 392.17 317.62 392.79 371.24" style="fill:#CC8C18"></polygon><polygon points="392.79 371.24 388.41 371.24 389.03 317.62 388.41 315.67 392.79 315.67 392.17 317.62 392.79 371.24" style="fill:#fff;opacity:0.2"></polygon><rect x="387.81" y="369.05" width="5.59" height="5.59" style="fill:#CC8C18"></rect><rect x="387.81" y="369.05" width="5.59" height="5.59" style="fill:#fff;opacity:0.4"></rect><polygon points="378.19 371.24 373.82 371.24 374.43 317.62 373.82 315.67 378.19 315.67 377.58 317.62 378.19 371.24" style="fill:#CC8C18"></polygon><polygon points="378.19 371.24 373.82 371.24 374.43 317.62 373.82 315.67 378.19 315.67 377.58 317.62 378.19 371.24" style="fill:#fff;opacity:0.2"></polygon><rect x="373.21" y="369.05" width="5.59" height="5.59" style="fill:#CC8C18"></rect><rect x="373.21" y="369.05" width="5.59" height="5.59" style="fill:#fff;opacity:0.4"></rect><polygon points="363.6 371.24 359.23 371.24 359.84 317.62 359.23 315.67 363.6 315.67 362.99 317.62 363.6 371.24" style="fill:#CC8C18"></polygon><polygon points="363.6 371.24 359.23 371.24 359.84 317.62 359.23 315.67 363.6 315.67 362.99 317.62 363.6 371.24" style="fill:#fff;opacity:0.2"></polygon><rect x="358.62" y="369.05" width="5.59" height="5.59" style="fill:#CC8C18"></rect><rect x="358.62" y="369.05" width="5.59" height="5.59" style="fill:#fff;opacity:0.4"></rect><rect x="350.17" y="312.43" width="80.86" height="3.24" style="fill:#CC8C18"></rect><rect x="350.17" y="312.43" width="80.86" height="3.24" style="fill:#fff;opacity:0.4"></rect><polygon points="395.38 281.12 385.82 281.12 348.71 296.26 432.49 296.26 395.38 281.12" style="fill:#CC8C18"></polygon><polygon points="398.37 282.22 382.83 282.22 383.1 279.9 398.1 279.9 398.37 282.22" style="fill:#CC8C18"></polygon><polygon points="398.37 282.22 382.83 282.22 383.1 279.9 398.1 279.9 398.37 282.22" style="fill:#fff;opacity:0.4"></polygon><polygon points="385.96 273.13 395.24 273.13 395.07 275.46 386.12 275.46 385.96 273.13" style="fill:#CC8C18"></polygon><polygon points="385.96 273.13 395.24 273.13 395.07 275.46 386.12 275.46 385.96 273.13" style="fill:#fff;opacity:0.4"></polygon><path d="M351.88,288.25a.51.51,0,0,0,.23-.41.49.49,0,0,0-.49-.49l0-.14,0,.15a.49.49,0,0,0-.42.48.46.46,0,0,0,.19.38l-.2.73a11.17,11.17,0,0,0-3.06-.56c1.91.39,2.48,4,2.48,4h-.46v4.35h3.08v-4.35h-.46s.57-3.58,2.48-4a11,11,0,0,0-3.08.57Z" style="fill:#CC8C18"></path><path d="M433.15,288.39a11.08,11.08,0,0,0-3.09.57l-.51-1.75-.46,1.74a11.21,11.21,0,0,0-3.07-.56c1.91.39,2.49,4,2.49,4H428v4.35h3.09v-4.35h-.47S431.24,288.78,433.15,288.39Z" style="fill:#CC8C18"></path><polygon points="348.71 296.26 432.49 296.26 431.03 299.29 350.17 299.29 348.71 296.26" style="fill:#CC8C18"></polygon><polygon points="348.71 296.26 432.49 296.26 431.03 299.29 350.17 299.29 348.71 296.26" style="fill:#fff;opacity:0.4"></polygon><path d="M106.62,273.9V270l.81-1.09v-4.05s-3.58-3.29-1.63-6.66c0,0,.82,2.77,2.6,2.77,0,0,.09-1.94,1-1.94s.93,1.78.93,1.78a2.73,2.73,0,0,0,1.94-2.61s2.91,3.58,0,6.5L112,269.2,113,270v3.84Z" style="fill:#CC8C18"></path><rect x="105.78" y="273.81" width="7.24" height="7.37" style="fill:#CC8C18"></rect><rect x="105.78" y="273.81" width="7.24" height="7.37" style="fill:#fff;opacity:0.2"></rect><rect x="74.53" y="309.8" width="69.75" height="64.84" style="fill:#CC8C18"></rect><rect x="85.16" y="326.46" width="5.81" height="10.69" style="opacity:0.2"></rect><rect x="85.16" y="344.88" width="5.81" height="26.36" style="opacity:0.2"></rect><rect x="99.38" y="326.46" width="5.81" height="10.69" style="opacity:0.2"></rect><rect x="99.38" y="344.88" width="5.81" height="26.36" style="opacity:0.2"></rect><rect x="113.6" y="326.46" width="5.81" height="10.69" style="opacity:0.2"></rect><rect x="113.6" y="344.88" width="5.81" height="26.36" style="opacity:0.2"></rect><rect x="127.82" y="326.46" width="5.81" height="10.69" style="opacity:0.2"></rect><rect x="127.82" y="344.88" width="5.81" height="26.36" style="opacity:0.2"></rect><rect x="69.57" y="297.78" width="79.67" height="15.95" style="fill:#CC8C18"></rect><rect x="69.57" y="297.78" width="79.67" height="15.95" style="fill:#fff;opacity:0.2"></rect><polygon points="140.77 371.24 136.4 371.24 137.01 317.62 136.4 315.67 140.77 315.67 140.16 317.62 140.77 371.24" style="fill:#CC8C18"></polygon><polygon points="140.77 371.24 136.4 371.24 137.01 317.62 136.4 315.67 140.77 315.67 140.16 317.62 140.77 371.24" style="fill:#fff;opacity:0.2"></polygon><rect x="135.79" y="369.05" width="5.59" height="5.59" style="fill:#CC8C18"></rect><rect x="135.79" y="369.05" width="5.59" height="5.59" style="fill:#fff;opacity:0.4"></rect><polygon points="126.18 371.24 121.81 371.24 122.42 317.62 121.81 315.67 126.18 315.67 125.57 317.62 126.18 371.24" style="fill:#CC8C18"></polygon><polygon points="126.18 371.24 121.81 371.24 122.42 317.62 121.81 315.67 126.18 315.67 125.57 317.62 126.18 371.24" style="fill:#fff;opacity:0.2"></polygon><rect x="121.2" y="369.05" width="5.59" height="5.59" style="fill:#CC8C18"></rect><rect x="121.2" y="369.05" width="5.59" height="5.59" style="fill:#fff;opacity:0.4"></rect><polygon points="111.59 371.24 107.22 371.24 107.83 317.62 107.22 315.67 111.59 315.67 110.97 317.62 111.59 371.24" style="fill:#CC8C18"></polygon><polygon points="111.59 371.24 107.22 371.24 107.83 317.62 107.22 315.67 111.59 315.67 110.97 317.62 111.59 371.24" style="fill:#fff;opacity:0.2"></polygon><rect x="106.61" y="369.05" width="5.59" height="5.59" style="fill:#CC8C18"></rect><rect x="106.61" y="369.05" width="5.59" height="5.59" style="fill:#fff;opacity:0.4"></rect><polygon points="97 371.24 92.62 371.24 93.24 317.62 92.62 315.67 97 315.67 96.38 317.62 97 371.24" style="fill:#CC8C18"></polygon><polygon points="97 371.24 92.62 371.24 93.24 317.62 92.62 315.67 97 315.67 96.38 317.62 97 371.24" style="fill:#fff;opacity:0.2"></polygon><rect x="92.02" y="369.05" width="5.59" height="5.59" style="fill:#CC8C18"></rect><rect x="92.02" y="369.05" width="5.59" height="5.59" style="fill:#fff;opacity:0.4"></rect><polygon points="82.4 371.24 78.03 371.24 78.64 317.62 78.03 315.67 82.4 315.67 81.79 317.62 82.4 371.24" style="fill:#CC8C18"></polygon><polygon points="82.4 371.24 78.03 371.24 78.64 317.62 78.03 315.67 82.4 315.67 81.79 317.62 82.4 371.24" style="fill:#fff;opacity:0.2"></polygon><rect x="77.42" y="369.05" width="5.59" height="5.59" style="fill:#CC8C18"></rect><rect x="77.42" y="369.05" width="5.59" height="5.59" style="fill:#fff;opacity:0.4"></rect><rect x="68.97" y="312.43" width="80.86" height="3.24" style="fill:#CC8C18"></rect><rect x="68.97" y="312.43" width="80.86" height="3.24" style="fill:#fff;opacity:0.4"></rect><polygon points="114.18 281.12 104.62 281.12 67.51 296.26 151.29 296.26 114.18 281.12" style="fill:#CC8C18"></polygon><polygon points="117.17 282.22 101.63 282.22 101.9 279.9 116.9 279.9 117.17 282.22" style="fill:#CC8C18"></polygon><polygon points="117.17 282.22 101.63 282.22 101.9 279.9 116.9 279.9 117.17 282.22" style="fill:#fff;opacity:0.4"></polygon><polygon points="104.77 273.13 114.04 273.13 113.88 275.46 104.93 275.46 104.77 273.13" style="fill:#CC8C18"></polygon><polygon points="104.77 273.13 114.04 273.13 113.88 275.46 104.93 275.46 104.77 273.13" style="fill:#fff;opacity:0.4"></polygon><path d="M70.68,288.25a.49.49,0,0,0-.26-.9l0-.14,0,.15a.48.48,0,0,0-.23.86l-.19.73a11.27,11.27,0,0,0-3.07-.56c1.91.39,2.49,4,2.49,4h-.47v4.35H72v-4.35h-.47s.58-3.58,2.49-4a11.08,11.08,0,0,0-3.09.57Z" style="fill:#CC8C18"></path><path d="M152,288.39a11.08,11.08,0,0,0-3.09.57l-.5-1.75-.47,1.74a11.17,11.17,0,0,0-3.06-.56c1.91.39,2.48,4,2.48,4h-.46v4.35h3.08v-4.35h-.46S150,288.78,152,288.39Z" style="fill:#CC8C18"></path><polygon points="67.51 296.26 151.29 296.26 149.83 299.29 68.97 299.29 67.51 296.26" style="fill:#CC8C18"></polygon><polygon points="67.51 296.26 151.29 296.26 149.83 299.29 68.97 299.29 67.51 296.26" style="fill:#fff;opacity:0.4"></polygon><polygon points="363.96 390.97 138.59 390.97 206.19 376.76 296.36 376.76 363.96 390.97" style="fill:#CC8C18"></polygon><polygon points="362.69 390.97 137.31 390.97 204.92 379.55 295.08 379.55 362.69 390.97" style="fill:#fff;opacity:0.2"></polygon><rect x="366.36" y="378.89" width="5.81" height="4.31" style="opacity:0.2"></rect><rect x="380.58" y="378.89" width="5.81" height="4.31" style="opacity:0.2"></rect><rect x="394.8" y="378.89" width="5.81" height="4.31" style="opacity:0.2"></rect><rect x="409.02" y="378.89" width="5.81" height="4.31" style="opacity:0.2"></rect><rect x="85.16" y="378.89" width="5.81" height="4.31" style="opacity:0.2"></rect><rect x="99.38" y="378.89" width="5.81" height="4.31" style="opacity:0.2"></rect><rect x="113.6" y="378.89" width="5.81" height="4.31" style="opacity:0.2"></rect><rect x="127.82" y="378.89" width="5.81" height="4.31" style="opacity:0.2"></rect><polygon points="300.13 390.97 199.87 390.97 209.05 379.55 290.95 379.55 300.13 390.97" style="fill:#fff;opacity:0.2"></polygon><path d="M258.27,244.78l1-3.15-2.19-.85v-2.43h-1.94v2.43l-2.28.85.56,2.42s-.59,3.28-.56,3.8,0,2.4,0,3a2.84,2.84,0,0,1-.35.94l-.2-.33s-1.77-3-1.73-4.89a8.14,8.14,0,0,0-1.23-3.9l.37-2.52s-.45.3-.86.61-2.76-.41-2.76-.41l-1.12.94,1.44.21.9,1.49-2.08.67-.21,1.44,2.3-.64.79,1.34s.67,2.07.36,2.51-.56.8-.76,1.1a2.89,2.89,0,0,1-.15-.31,8.21,8.21,0,0,0-2.69-3.08l-.67-2.46s-.29.45-.55.9a.83.83,0,0,1-.44.27c-.25-.35-.43-.56-.43-.56v-2.55s-.41.36-.77.72-2.79,0-2.79,0l-1,1.1h1.45l1.12,1.33-2,1v1.45l1.76-.78.48-.13.92,1.16s.1.19.22.47l-.73.65.38,1.41.85-.69a1,1,0,0,1,0,.58c-.24.49-.73,1.46-.73,1.46l.73,2.74h3.81l.88,1.51,3.52-1h7.82l-1-3.18s1.09-1.45,1.46-1.88S258.27,244.78,258.27,244.78Z" style="fill:#CC8C18"></path><polygon points="236.27 264.09 263.73 264.09 273.35 274.65 226.65 274.65 236.27 264.09" style="fill:#CC8C18"></polygon><polygon points="236.27 264.09 263.73 264.09 273.35 274.65 226.65 274.65 236.27 264.09" style="fill:#fff;opacity:0.2"></polygon><rect x="210.17" y="290.83" width="79.67" height="18.7" transform="translate(500 600.36) rotate(180)" style="fill:#CC8C18"></rect><rect x="210.17" y="290.83" width="79.67" height="18.7" transform="translate(500 600.36) rotate(180)" style="fill:#fff;opacity:0.2"></rect><polygon points="208.11 288.28 291.89 288.28 290.43 291.31 209.57 291.31 208.11 288.28" style="fill:#CC8C18"></polygon><polygon points="208.11 288.28 291.89 288.28 290.43 291.31 209.57 291.31 208.11 288.28" style="fill:#fff;opacity:0.4"></polygon><polygon points="286.48 273.13 213.52 273.13 208.11 288.28 291.89 288.28 286.48 273.13" style="fill:#CC8C18"></polygon><polygon points="287.65 274.65 212.35 274.65 213.66 273.13 286.34 273.13 287.65 274.65" style="fill:#CC8C18"></polygon><polygon points="287.65 274.65 212.35 274.65 213.66 273.13 286.34 273.13 287.65 274.65" style="fill:#fff;opacity:0.4"></polygon><polygon points="236.27 264.09 263.73 264.09 262.57 254.98 237.43 254.98 236.27 264.09" style="fill:#CC8C18"></polygon><polygon points="236.27 264.09 263.73 264.09 262.57 254.98 237.43 254.98 236.27 264.09" style="fill:#fff;opacity:0.2"></polygon><polygon points="263.73 256.5 236.27 256.5 236.75 253.47 263.25 253.47 263.73 256.5" style="fill:#CC8C18"></polygon><polygon points="263.73 256.5 236.27 256.5 236.75 253.47 263.25 253.47 263.73 256.5" style="fill:#fff;opacity:0.4"></polygon><rect x="214.51" y="309.8" width="70.98" height="69.75" style="fill:#CC8C18"></rect><rect x="245.22" y="338.67" width="9.56" height="40.89" style="opacity:0.2"></rect><rect x="260.45" y="338.67" width="9.56" height="40.89" style="opacity:0.2"></rect><rect x="229.99" y="338.67" width="9.56" height="40.89" style="opacity:0.2"></rect><rect x="233.81" y="322.15" width="32.39" height="10.69" style="opacity:0.2"></rect><rect x="272.18" y="322.15" width="8.69" height="10.69" style="opacity:0.2"></rect><rect x="219.13" y="322.15" width="8.69" height="10.69" style="opacity:0.2"></rect><rect x="210.17" y="305.88" width="79.67" height="7.85" style="fill:#CC8C18"></rect><rect x="210.17" y="305.88" width="79.67" height="7.85" style="fill:#fff;opacity:0.2"></rect><path d="M293.2,298.89a3.45,3.45,0,0,0-.93-2.41,3.45,3.45,0,0,0-.93,2.41h-.61v5.61h3.08v-5.61Z" style="fill:#CC8C18"></path><path d="M207.73,296.48a3.45,3.45,0,0,0-.93,2.41h-.61v5.61h3.08v-5.61h-.61A3.45,3.45,0,0,0,207.73,296.48Z" style="fill:#CC8C18"></path><path d="M250,274.56s-1.19.95-1.38,3.55h-.89v8.25h4.54v-8.25h-.89C251.19,275.51,250,274.56,250,274.56Z" style="fill:#CC8C18"></path><g style="opacity:0.2"><path d="M293.2,298.89a3.45,3.45,0,0,0-.93-2.41,3.45,3.45,0,0,0-.93,2.41h-.61v5.61h3.08v-5.61Z" style="fill:#fff"></path><path d="M207.73,296.48a3.45,3.45,0,0,0-.93,2.41h-.61v5.61h3.08v-5.61h-.61A3.45,3.45,0,0,0,207.73,296.48Z" style="fill:#fff"></path><path d="M250,274.56s-1.19.95-1.38,3.55h-.89v8.25h4.54v-8.25h-.89C251.19,275.51,250,274.56,250,274.56Z" style="fill:#fff"></path></g><polygon points="288.67 376.15 284.29 376.15 284.91 317.62 284.29 315.67 288.67 315.67 288.05 317.62 288.67 376.15" style="fill:#CC8C18"></polygon><polygon points="288.67 376.15 284.29 376.15 284.91 317.62 284.29 315.67 288.67 315.67 288.05 317.62 288.67 376.15" style="fill:#fff;opacity:0.2"></polygon><rect x="283.69" y="373.97" width="5.59" height="5.59" style="fill:#CC8C18"></rect><rect x="283.69" y="373.97" width="5.59" height="5.59" style="fill:#fff;opacity:0.4"></rect><polygon points="274.07 376.15 269.7 376.15 270.32 317.62 269.7 315.67 274.07 315.67 273.46 317.62 274.07 376.15" style="fill:#CC8C18"></polygon><polygon points="274.07 376.15 269.7 376.15 270.32 317.62 269.7 315.67 274.07 315.67 273.46 317.62 274.07 376.15" style="fill:#fff;opacity:0.2"></polygon><rect x="269.1" y="373.97" width="5.59" height="5.59" style="fill:#CC8C18"></rect><rect x="269.1" y="373.97" width="5.59" height="5.59" style="fill:#fff;opacity:0.4"></rect><polygon points="259.48 376.15 255.11 376.15 255.72 317.62 255.11 315.67 259.48 315.67 258.87 317.62 259.48 376.15" style="fill:#CC8C18"></polygon><polygon points="259.48 376.15 255.11 376.15 255.72 317.62 255.11 315.67 259.48 315.67 258.87 317.62 259.48 376.15" style="fill:#fff;opacity:0.2"></polygon><rect x="254.5" y="373.97" width="5.59" height="5.59" style="fill:#CC8C18"></rect><rect x="254.5" y="373.97" width="5.59" height="5.59" style="fill:#fff;opacity:0.4"></rect><polygon points="244.89 376.15 240.52 376.15 241.13 317.62 240.52 315.67 244.89 315.67 244.28 317.62 244.89 376.15" style="fill:#CC8C18"></polygon><polygon points="244.89 376.15 240.52 376.15 241.13 317.62 240.52 315.67 244.89 315.67 244.28 317.62 244.89 376.15" style="fill:#fff;opacity:0.2"></polygon><rect x="239.91" y="373.97" width="5.59" height="5.59" style="fill:#CC8C18"></rect><rect x="239.91" y="373.97" width="5.59" height="5.59" style="fill:#fff;opacity:0.4"></rect><polygon points="230.3 376.15 225.93 376.15 226.54 317.62 225.93 315.67 230.3 315.67 229.68 317.62 230.3 376.15" style="fill:#CC8C18"></polygon><polygon points="230.3 376.15 225.93 376.15 226.54 317.62 225.93 315.67 230.3 315.67 229.68 317.62 230.3 376.15" style="fill:#fff;opacity:0.2"></polygon><rect x="225.32" y="373.97" width="5.59" height="5.59" style="fill:#CC8C18"></rect><rect x="225.32" y="373.97" width="5.59" height="5.59" style="fill:#fff;opacity:0.4"></rect><polygon points="215.71 376.15 211.33 376.15 211.95 317.62 211.33 315.67 215.71 315.67 215.09 317.62 215.71 376.15" style="fill:#CC8C18"></polygon><polygon points="215.71 376.15 211.33 376.15 211.95 317.62 211.33 315.67 215.71 315.67 215.09 317.62 215.71 376.15" style="fill:#fff;opacity:0.2"></polygon><rect x="210.73" y="373.97" width="5.59" height="5.59" style="fill:#CC8C18"></rect><rect x="210.73" y="373.97" width="5.59" height="5.59" style="fill:#fff;opacity:0.4"></rect><polygon points="250 281.79 204.57 304.5 206.57 307.25 293.43 307.25 295.43 304.5 250 281.79" style="fill:#CC8C18"></polygon><polygon points="250 281.79 204.57 304.5 206.57 307.25 293.43 307.25 295.43 304.5 250 281.79" style="fill:#fff;opacity:0.4"></polygon><polygon points="250 284.58 210.16 304.5 289.85 304.5 250 284.58" style="fill:#fff;opacity:0.2"></polygon><rect x="209.57" y="312.43" width="80.86" height="3.24" style="fill:#CC8C18"></rect><rect x="209.57" y="312.43" width="80.86" height="3.24" style="fill:#fff;opacity:0.4"></rect></g><g id="freepik--Plants--inject-34"><path d="M321,414S329,398.48,327,397s-5.95,13-5.95,11.84.22-20.86-3.45-20.07,0,18.94,0,18.94-4.94-9.28-6.88-8.58,5.71,11.74,5.71,11.74-4.57-2.76-5.71-2.55,5.71,5.72,5.71,5.72Z" style="fill:#CC8C18"></path><path d="M83.34,414s-8-15.52-6-17,6,13,6,11.84-.22-20.86,3.45-20.07,0,18.94,0,18.94,4.95-9.28,6.88-8.58S88,410.83,88,410.83s4.57-2.76,5.71-2.55S88,414,88,414Z" style="fill:#CC8C18"></path><path d="M171,414s-9-8-6.33-9.3,6,6,6.33,4.9-1.77-11.21,3.25-10.51,0,10.51,0,10.51,3.72-4,5-3.39-4,7.79-4,7.79Z" style="fill:#CC8C18"></path><path d="M419.8,414s9-8,6.33-9.3-6,6-6.33,4.9,1.77-11.21-3.25-10.51,0,10.51,0,10.51-3.72-4-5-3.39,4,7.79,4,7.79Z" style="fill:#CC8C18"></path><g style="opacity:0.4"><path d="M321,414S329,398.48,327,397s-5.95,13-5.95,11.84.22-20.86-3.45-20.07,0,18.94,0,18.94-4.94-9.28-6.88-8.58,5.71,11.74,5.71,11.74-4.57-2.76-5.71-2.55,5.71,5.72,5.71,5.72Z" style="fill:#fff"></path><path d="M83.34,414s-8-15.52-6-17,6,13,6,11.84-.22-20.86,3.45-20.07,0,18.94,0,18.94,4.95-9.28,6.88-8.58S88,410.83,88,410.83s4.57-2.76,5.71-2.55S88,414,88,414Z" style="fill:#fff"></path><path d="M171,414s-9-8-6.33-9.3,6,6,6.33,4.9-1.77-11.21,3.25-10.51,0,10.51,0,10.51,3.72-4,5-3.39-4,7.79-4,7.79Z" style="fill:#fff"></path><path d="M419.8,414s9-8,6.33-9.3-6,6-6.33,4.9,1.77-11.21-3.25-10.51,0,10.51,0,10.51-3.72-4-5-3.39,4,7.79,4,7.79Z" style="fill:#fff"></path></g><path d="M66.07,414H83.34s-4.07-5.08-8.63-5.84S66.07,414,66.07,414Z" style="fill:#263238"></path><path d="M195.71,414h7.95s-2.53-3.41-4.86-3.55S195.71,414,195.71,414Z" style="fill:#263238"></path><path d="M382,414h12.4s-2.76-5.81-6.2-6S382,414,382,414Z" style="fill:#263238"></path><path d="M66.07,414H83.34s-4.07-5.08-8.63-5.84S66.07,414,66.07,414Z" style="fill:#fff;opacity:0.4"></path><path d="M195.71,414h7.95s-2.53-3.41-4.86-3.55S195.71,414,195.71,414Z" style="fill:#fff;opacity:0.4"></path><path d="M382,414h12.4s-2.76-5.81-6.2-6S382,414,382,414Z" style="fill:#fff;opacity:0.4"></path></g></svg>